<svg width="1252" height="332" viewBox="0 0 1252 332" fill="none" xmlns="http://www.w3.org/2000/svg">
<path d="M27.9922 325.167H26.1016V316.034L23.3125 316.987V315.385L27.75 313.753H27.9922V325.167ZM40.7891 322.87C40.7891 322.531 40.6484 322.273 40.3672 322.096C40.0911 321.919 39.6302 321.763 38.9844 321.628C38.3385 321.492 37.7995 321.32 37.3672 321.112C36.4193 320.654 35.9453 319.99 35.9453 319.12C35.9453 318.391 36.2526 317.781 36.8672 317.292C37.4818 316.802 38.263 316.557 39.2109 316.557C40.2214 316.557 41.0365 316.807 41.6562 317.307C42.2812 317.807 42.5938 318.456 42.5938 319.253H40.6953C40.6953 318.888 40.5599 318.586 40.2891 318.346C40.0182 318.102 39.6589 317.979 39.2109 317.979C38.7943 317.979 38.4531 318.075 38.1875 318.268C37.9271 318.461 37.7969 318.719 37.7969 319.042C37.7969 319.333 37.9193 319.56 38.1641 319.721C38.4089 319.883 38.9036 320.047 39.6484 320.214C40.3932 320.375 40.9766 320.57 41.3984 320.799C41.8255 321.023 42.1406 321.294 42.3438 321.612C42.5521 321.93 42.6562 322.315 42.6562 322.768C42.6562 323.529 42.3411 324.146 41.7109 324.62C41.0807 325.089 40.2552 325.323 39.2344 325.323C38.5417 325.323 37.9245 325.198 37.3828 324.948C36.8411 324.698 36.4193 324.354 36.1172 323.917C35.8151 323.479 35.6641 323.008 35.6641 322.503H37.5078C37.5339 322.95 37.7031 323.297 38.0156 323.542C38.3281 323.781 38.7422 323.901 39.2578 323.901C39.7578 323.901 40.138 323.807 40.3984 323.62C40.6589 323.427 40.7891 323.177 40.7891 322.87ZM48.0391 325.323C46.8359 325.323 45.8594 324.945 45.1094 324.19C44.3646 323.43 43.9922 322.419 43.9922 321.159V320.924C43.9922 320.081 44.1536 319.328 44.4766 318.667C44.8047 318 45.263 317.482 45.8516 317.112C46.4401 316.742 47.0964 316.557 47.8203 316.557C48.9714 316.557 49.8594 316.924 50.4844 317.659C51.1146 318.393 51.4297 319.432 51.4297 320.776V321.542H45.9062C45.9635 322.24 46.1953 322.792 46.6016 323.198C47.013 323.604 47.5286 323.807 48.1484 323.807C49.0182 323.807 49.7266 323.456 50.2734 322.753L51.2969 323.729C50.9583 324.234 50.5052 324.628 49.9375 324.909C49.375 325.185 48.7422 325.323 48.0391 325.323ZM47.8125 318.081C47.2917 318.081 46.8698 318.263 46.5469 318.628C46.2292 318.992 46.026 319.5 45.9375 320.151H49.5547V320.01C49.513 319.375 49.3438 318.896 49.0469 318.573C48.75 318.245 48.3385 318.081 47.8125 318.081ZM57.9609 325.167C57.8776 325.005 57.8047 324.742 57.7422 324.378C57.138 325.008 56.3984 325.323 55.5234 325.323C54.6745 325.323 53.9818 325.081 53.4453 324.596C52.9089 324.112 52.6406 323.513 52.6406 322.799C52.6406 321.898 52.974 321.208 53.6406 320.729C54.3125 320.245 55.2708 320.003 56.5156 320.003H57.6797V319.448C57.6797 319.01 57.5573 318.661 57.3125 318.401C57.0677 318.135 56.6953 318.003 56.1953 318.003C55.763 318.003 55.4089 318.112 55.1328 318.331C54.8568 318.544 54.7188 318.818 54.7188 319.151H52.8203C52.8203 318.687 52.974 318.255 53.2812 317.854C53.5885 317.448 54.0052 317.13 54.5312 316.901C55.0625 316.672 55.6536 316.557 56.3047 316.557C57.2943 316.557 58.0833 316.807 58.6719 317.307C59.2604 317.802 59.5625 318.5 59.5781 319.401V323.214C59.5781 323.974 59.6849 324.581 59.8984 325.034V325.167H57.9609ZM55.875 323.799C56.25 323.799 56.6016 323.708 56.9297 323.526C57.263 323.344 57.513 323.099 57.6797 322.792V321.198H56.6562C55.9531 321.198 55.4245 321.32 55.0703 321.565C54.7161 321.81 54.5391 322.156 54.5391 322.604C54.5391 322.969 54.6589 323.26 54.8984 323.479C55.1432 323.693 55.4688 323.799 55.875 323.799ZM66.3047 322.87C66.3047 322.531 66.1641 322.273 65.8828 322.096C65.6068 321.919 65.1458 321.763 64.5 321.628C63.8542 321.492 63.3151 321.32 62.8828 321.112C61.9349 320.654 61.4609 319.99 61.4609 319.12C61.4609 318.391 61.7682 317.781 62.3828 317.292C62.9974 316.802 63.7786 316.557 64.7266 316.557C65.737 316.557 66.5521 316.807 67.1719 317.307C67.7969 317.807 68.1094 318.456 68.1094 319.253H66.2109C66.2109 318.888 66.0755 318.586 65.8047 318.346C65.5339 318.102 65.1745 317.979 64.7266 317.979C64.3099 317.979 63.9688 318.075 63.7031 318.268C63.4427 318.461 63.3125 318.719 63.3125 319.042C63.3125 319.333 63.4349 319.56 63.6797 319.721C63.9245 319.883 64.4193 320.047 65.1641 320.214C65.9089 320.375 66.4922 320.57 66.9141 320.799C67.3411 321.023 67.6562 321.294 67.8594 321.612C68.0677 321.93 68.1719 322.315 68.1719 322.768C68.1719 323.529 67.8568 324.146 67.2266 324.62C66.5964 325.089 65.7708 325.323 64.75 325.323C64.0573 325.323 63.4401 325.198 62.8984 324.948C62.3568 324.698 61.9349 324.354 61.6328 323.917C61.3307 323.479 61.1797 323.008 61.1797 322.503H63.0234C63.0495 322.95 63.2188 323.297 63.5312 323.542C63.8438 323.781 64.2578 323.901 64.7734 323.901C65.2734 323.901 65.6536 323.807 65.9141 323.62C66.1745 323.427 66.3047 323.177 66.3047 322.87ZM69.4766 320.862C69.4766 320.034 69.6406 319.289 69.9688 318.628C70.2969 317.961 70.7578 317.45 71.3516 317.096C71.9453 316.737 72.6276 316.557 73.3984 316.557C74.5391 316.557 75.4635 316.924 76.1719 317.659C76.8854 318.393 77.2708 319.367 77.3281 320.581L77.3359 321.026C77.3359 321.859 77.1745 322.604 76.8516 323.26C76.5339 323.917 76.0755 324.424 75.4766 324.784C74.8828 325.143 74.1953 325.323 73.4141 325.323C72.2214 325.323 71.2656 324.927 70.5469 324.135C69.8333 323.339 69.4766 322.279 69.4766 320.956V320.862ZM71.375 321.026C71.375 321.896 71.5547 322.578 71.9141 323.073C72.2734 323.562 72.7734 323.807 73.4141 323.807C74.0547 323.807 74.5521 323.557 74.9062 323.057C75.2656 322.557 75.4453 321.825 75.4453 320.862C75.4453 320.008 75.2604 319.331 74.8906 318.831C74.526 318.331 74.0286 318.081 73.3984 318.081C72.7786 318.081 72.2865 318.328 71.9219 318.823C71.5573 319.312 71.375 320.047 71.375 321.026ZM80.7031 316.714L80.7578 317.69C81.3828 316.935 82.2031 316.557 83.2188 316.557C84.9792 316.557 85.875 317.565 85.9062 319.581V325.167H84.0078V319.69C84.0078 319.154 83.8906 318.758 83.6562 318.503C83.4271 318.242 83.0495 318.112 82.5234 318.112C81.7578 318.112 81.1875 318.458 80.8125 319.151V325.167H78.9141V316.714H80.7031Z" fill="#1D233A" fill-opacity="0.4"/>
<path d="M237.5 325.167H229.852V323.862L233.641 319.729C234.188 319.12 234.576 318.612 234.805 318.206C235.039 317.794 235.156 317.383 235.156 316.971C235.156 316.43 235.003 315.992 234.695 315.659C234.393 315.325 233.984 315.159 233.469 315.159C232.854 315.159 232.378 315.346 232.039 315.721C231.701 316.096 231.531 316.609 231.531 317.26H229.633C229.633 316.568 229.789 315.945 230.102 315.393C230.419 314.836 230.87 314.404 231.453 314.096C232.042 313.789 232.719 313.635 233.484 313.635C234.589 313.635 235.458 313.914 236.094 314.471C236.734 315.023 237.055 315.789 237.055 316.768C237.055 317.336 236.893 317.932 236.57 318.557C236.253 319.177 235.729 319.883 235 320.674L232.219 323.651H237.5V325.167ZM247.789 322.87C247.789 322.531 247.648 322.273 247.367 322.096C247.091 321.919 246.63 321.763 245.984 321.628C245.339 321.492 244.799 321.32 244.367 321.112C243.419 320.654 242.945 319.99 242.945 319.12C242.945 318.391 243.253 317.781 243.867 317.292C244.482 316.802 245.263 316.557 246.211 316.557C247.221 316.557 248.036 316.807 248.656 317.307C249.281 317.807 249.594 318.456 249.594 319.253H247.695C247.695 318.888 247.56 318.586 247.289 318.346C247.018 318.102 246.659 317.979 246.211 317.979C245.794 317.979 245.453 318.075 245.188 318.268C244.927 318.461 244.797 318.719 244.797 319.042C244.797 319.333 244.919 319.56 245.164 319.721C245.409 319.883 245.904 320.047 246.648 320.214C247.393 320.375 247.977 320.57 248.398 320.799C248.826 321.023 249.141 321.294 249.344 321.612C249.552 321.93 249.656 322.315 249.656 322.768C249.656 323.529 249.341 324.146 248.711 324.62C248.081 325.089 247.255 325.323 246.234 325.323C245.542 325.323 244.924 325.198 244.383 324.948C243.841 324.698 243.419 324.354 243.117 323.917C242.815 323.479 242.664 323.008 242.664 322.503H244.508C244.534 322.95 244.703 323.297 245.016 323.542C245.328 323.781 245.742 323.901 246.258 323.901C246.758 323.901 247.138 323.807 247.398 323.62C247.659 323.427 247.789 323.177 247.789 322.87ZM255.039 325.323C253.836 325.323 252.859 324.945 252.109 324.19C251.365 323.43 250.992 322.419 250.992 321.159V320.924C250.992 320.081 251.154 319.328 251.477 318.667C251.805 318 252.263 317.482 252.852 317.112C253.44 316.742 254.096 316.557 254.82 316.557C255.971 316.557 256.859 316.924 257.484 317.659C258.115 318.393 258.43 319.432 258.43 320.776V321.542H252.906C252.964 322.24 253.195 322.792 253.602 323.198C254.013 323.604 254.529 323.807 255.148 323.807C256.018 323.807 256.727 323.456 257.273 322.753L258.297 323.729C257.958 324.234 257.505 324.628 256.938 324.909C256.375 325.185 255.742 325.323 255.039 325.323ZM254.812 318.081C254.292 318.081 253.87 318.263 253.547 318.628C253.229 318.992 253.026 319.5 252.938 320.151H256.555V320.01C256.513 319.375 256.344 318.896 256.047 318.573C255.75 318.245 255.339 318.081 254.812 318.081ZM264.961 325.167C264.878 325.005 264.805 324.742 264.742 324.378C264.138 325.008 263.398 325.323 262.523 325.323C261.674 325.323 260.982 325.081 260.445 324.596C259.909 324.112 259.641 323.513 259.641 322.799C259.641 321.898 259.974 321.208 260.641 320.729C261.312 320.245 262.271 320.003 263.516 320.003H264.68V319.448C264.68 319.01 264.557 318.661 264.312 318.401C264.068 318.135 263.695 318.003 263.195 318.003C262.763 318.003 262.409 318.112 262.133 318.331C261.857 318.544 261.719 318.818 261.719 319.151H259.82C259.82 318.687 259.974 318.255 260.281 317.854C260.589 317.448 261.005 317.13 261.531 316.901C262.062 316.672 262.654 316.557 263.305 316.557C264.294 316.557 265.083 316.807 265.672 317.307C266.26 317.802 266.562 318.5 266.578 319.401V323.214C266.578 323.974 266.685 324.581 266.898 325.034V325.167H264.961ZM262.875 323.799C263.25 323.799 263.602 323.708 263.93 323.526C264.263 323.344 264.513 323.099 264.68 322.792V321.198H263.656C262.953 321.198 262.424 321.32 262.07 321.565C261.716 321.81 261.539 322.156 261.539 322.604C261.539 322.969 261.659 323.26 261.898 323.479C262.143 323.693 262.469 323.799 262.875 323.799ZM273.305 322.87C273.305 322.531 273.164 322.273 272.883 322.096C272.607 321.919 272.146 321.763 271.5 321.628C270.854 321.492 270.315 321.32 269.883 321.112C268.935 320.654 268.461 319.99 268.461 319.12C268.461 318.391 268.768 317.781 269.383 317.292C269.997 316.802 270.779 316.557 271.727 316.557C272.737 316.557 273.552 316.807 274.172 317.307C274.797 317.807 275.109 318.456 275.109 319.253H273.211C273.211 318.888 273.076 318.586 272.805 318.346C272.534 318.102 272.174 317.979 271.727 317.979C271.31 317.979 270.969 318.075 270.703 318.268C270.443 318.461 270.312 318.719 270.312 319.042C270.312 319.333 270.435 319.56 270.68 319.721C270.924 319.883 271.419 320.047 272.164 320.214C272.909 320.375 273.492 320.57 273.914 320.799C274.341 321.023 274.656 321.294 274.859 321.612C275.068 321.93 275.172 322.315 275.172 322.768C275.172 323.529 274.857 324.146 274.227 324.62C273.596 325.089 272.771 325.323 271.75 325.323C271.057 325.323 270.44 325.198 269.898 324.948C269.357 324.698 268.935 324.354 268.633 323.917C268.331 323.479 268.18 323.008 268.18 322.503H270.023C270.049 322.95 270.219 323.297 270.531 323.542C270.844 323.781 271.258 323.901 271.773 323.901C272.273 323.901 272.654 323.807 272.914 323.62C273.174 323.427 273.305 323.177 273.305 322.87ZM276.477 320.862C276.477 320.034 276.641 319.289 276.969 318.628C277.297 317.961 277.758 317.45 278.352 317.096C278.945 316.737 279.628 316.557 280.398 316.557C281.539 316.557 282.464 316.924 283.172 317.659C283.885 318.393 284.271 319.367 284.328 320.581L284.336 321.026C284.336 321.859 284.174 322.604 283.852 323.26C283.534 323.917 283.076 324.424 282.477 324.784C281.883 325.143 281.195 325.323 280.414 325.323C279.221 325.323 278.266 324.927 277.547 324.135C276.833 323.339 276.477 322.279 276.477 320.956V320.862ZM278.375 321.026C278.375 321.896 278.555 322.578 278.914 323.073C279.273 323.562 279.773 323.807 280.414 323.807C281.055 323.807 281.552 323.557 281.906 323.057C282.266 322.557 282.445 321.825 282.445 320.862C282.445 320.008 282.26 319.331 281.891 318.831C281.526 318.331 281.029 318.081 280.398 318.081C279.779 318.081 279.286 318.328 278.922 318.823C278.557 319.312 278.375 320.047 278.375 321.026ZM287.703 316.714L287.758 317.69C288.383 316.935 289.203 316.557 290.219 316.557C291.979 316.557 292.875 317.565 292.906 319.581V325.167H291.008V319.69C291.008 319.154 290.891 318.758 290.656 318.503C290.427 318.242 290.049 318.112 289.523 318.112C288.758 318.112 288.188 318.458 287.812 319.151V325.167H285.914V316.714H287.703Z" fill="#1D233A" fill-opacity="0.4"/>
<path d="M439.047 318.612H440.203C440.786 318.607 441.247 318.456 441.586 318.159C441.93 317.862 442.102 317.432 442.102 316.87C442.102 316.328 441.958 315.909 441.672 315.612C441.391 315.31 440.958 315.159 440.375 315.159C439.865 315.159 439.445 315.307 439.117 315.604C438.789 315.896 438.625 316.279 438.625 316.753H436.727C436.727 316.169 436.88 315.638 437.188 315.159C437.5 314.68 437.932 314.307 438.484 314.042C439.042 313.771 439.664 313.635 440.352 313.635C441.487 313.635 442.378 313.922 443.023 314.495C443.674 315.062 444 315.854 444 316.87C444 317.38 443.836 317.862 443.508 318.315C443.185 318.763 442.766 319.102 442.25 319.331C442.875 319.544 443.349 319.88 443.672 320.339C444 320.797 444.164 321.344 444.164 321.979C444.164 323 443.812 323.812 443.109 324.417C442.411 325.021 441.492 325.323 440.352 325.323C439.258 325.323 438.362 325.031 437.664 324.448C436.966 323.865 436.617 323.089 436.617 322.12H438.516C438.516 322.62 438.682 323.026 439.016 323.339C439.354 323.651 439.807 323.807 440.375 323.807C440.964 323.807 441.427 323.651 441.766 323.339C442.104 323.026 442.273 322.573 442.273 321.979C442.273 321.38 442.096 320.919 441.742 320.596C441.388 320.273 440.862 320.112 440.164 320.112H439.047V318.612ZM454.789 322.87C454.789 322.531 454.648 322.273 454.367 322.096C454.091 321.919 453.63 321.763 452.984 321.628C452.339 321.492 451.799 321.32 451.367 321.112C450.419 320.654 449.945 319.99 449.945 319.12C449.945 318.391 450.253 317.781 450.867 317.292C451.482 316.802 452.263 316.557 453.211 316.557C454.221 316.557 455.036 316.807 455.656 317.307C456.281 317.807 456.594 318.456 456.594 319.253H454.695C454.695 318.888 454.56 318.586 454.289 318.346C454.018 318.102 453.659 317.979 453.211 317.979C452.794 317.979 452.453 318.075 452.188 318.268C451.927 318.461 451.797 318.719 451.797 319.042C451.797 319.333 451.919 319.56 452.164 319.721C452.409 319.883 452.904 320.047 453.648 320.214C454.393 320.375 454.977 320.57 455.398 320.799C455.826 321.023 456.141 321.294 456.344 321.612C456.552 321.93 456.656 322.315 456.656 322.768C456.656 323.529 456.341 324.146 455.711 324.62C455.081 325.089 454.255 325.323 453.234 325.323C452.542 325.323 451.924 325.198 451.383 324.948C450.841 324.698 450.419 324.354 450.117 323.917C449.815 323.479 449.664 323.008 449.664 322.503H451.508C451.534 322.95 451.703 323.297 452.016 323.542C452.328 323.781 452.742 323.901 453.258 323.901C453.758 323.901 454.138 323.807 454.398 323.62C454.659 323.427 454.789 323.177 454.789 322.87ZM462.039 325.323C460.836 325.323 459.859 324.945 459.109 324.19C458.365 323.43 457.992 322.419 457.992 321.159V320.924C457.992 320.081 458.154 319.328 458.477 318.667C458.805 318 459.263 317.482 459.852 317.112C460.44 316.742 461.096 316.557 461.82 316.557C462.971 316.557 463.859 316.924 464.484 317.659C465.115 318.393 465.43 319.432 465.43 320.776V321.542H459.906C459.964 322.24 460.195 322.792 460.602 323.198C461.013 323.604 461.529 323.807 462.148 323.807C463.018 323.807 463.727 323.456 464.273 322.753L465.297 323.729C464.958 324.234 464.505 324.628 463.938 324.909C463.375 325.185 462.742 325.323 462.039 325.323ZM461.812 318.081C461.292 318.081 460.87 318.263 460.547 318.628C460.229 318.992 460.026 319.5 459.938 320.151H463.555V320.01C463.513 319.375 463.344 318.896 463.047 318.573C462.75 318.245 462.339 318.081 461.812 318.081ZM471.961 325.167C471.878 325.005 471.805 324.742 471.742 324.378C471.138 325.008 470.398 325.323 469.523 325.323C468.674 325.323 467.982 325.081 467.445 324.596C466.909 324.112 466.641 323.513 466.641 322.799C466.641 321.898 466.974 321.208 467.641 320.729C468.312 320.245 469.271 320.003 470.516 320.003H471.68V319.448C471.68 319.01 471.557 318.661 471.312 318.401C471.068 318.135 470.695 318.003 470.195 318.003C469.763 318.003 469.409 318.112 469.133 318.331C468.857 318.544 468.719 318.818 468.719 319.151H466.82C466.82 318.687 466.974 318.255 467.281 317.854C467.589 317.448 468.005 317.13 468.531 316.901C469.062 316.672 469.654 316.557 470.305 316.557C471.294 316.557 472.083 316.807 472.672 317.307C473.26 317.802 473.562 318.5 473.578 319.401V323.214C473.578 323.974 473.685 324.581 473.898 325.034V325.167H471.961ZM469.875 323.799C470.25 323.799 470.602 323.708 470.93 323.526C471.263 323.344 471.513 323.099 471.68 322.792V321.198H470.656C469.953 321.198 469.424 321.32 469.07 321.565C468.716 321.81 468.539 322.156 468.539 322.604C468.539 322.969 468.659 323.26 468.898 323.479C469.143 323.693 469.469 323.799 469.875 323.799ZM480.305 322.87C480.305 322.531 480.164 322.273 479.883 322.096C479.607 321.919 479.146 321.763 478.5 321.628C477.854 321.492 477.315 321.32 476.883 321.112C475.935 320.654 475.461 319.99 475.461 319.12C475.461 318.391 475.768 317.781 476.383 317.292C476.997 316.802 477.779 316.557 478.727 316.557C479.737 316.557 480.552 316.807 481.172 317.307C481.797 317.807 482.109 318.456 482.109 319.253H480.211C480.211 318.888 480.076 318.586 479.805 318.346C479.534 318.102 479.174 317.979 478.727 317.979C478.31 317.979 477.969 318.075 477.703 318.268C477.443 318.461 477.312 318.719 477.312 319.042C477.312 319.333 477.435 319.56 477.68 319.721C477.924 319.883 478.419 320.047 479.164 320.214C479.909 320.375 480.492 320.57 480.914 320.799C481.341 321.023 481.656 321.294 481.859 321.612C482.068 321.93 482.172 322.315 482.172 322.768C482.172 323.529 481.857 324.146 481.227 324.62C480.596 325.089 479.771 325.323 478.75 325.323C478.057 325.323 477.44 325.198 476.898 324.948C476.357 324.698 475.935 324.354 475.633 323.917C475.331 323.479 475.18 323.008 475.18 322.503H477.023C477.049 322.95 477.219 323.297 477.531 323.542C477.844 323.781 478.258 323.901 478.773 323.901C479.273 323.901 479.654 323.807 479.914 323.62C480.174 323.427 480.305 323.177 480.305 322.87ZM483.477 320.862C483.477 320.034 483.641 319.289 483.969 318.628C484.297 317.961 484.758 317.45 485.352 317.096C485.945 316.737 486.628 316.557 487.398 316.557C488.539 316.557 489.464 316.924 490.172 317.659C490.885 318.393 491.271 319.367 491.328 320.581L491.336 321.026C491.336 321.859 491.174 322.604 490.852 323.26C490.534 323.917 490.076 324.424 489.477 324.784C488.883 325.143 488.195 325.323 487.414 325.323C486.221 325.323 485.266 324.927 484.547 324.135C483.833 323.339 483.477 322.279 483.477 320.956V320.862ZM485.375 321.026C485.375 321.896 485.555 322.578 485.914 323.073C486.273 323.562 486.773 323.807 487.414 323.807C488.055 323.807 488.552 323.557 488.906 323.057C489.266 322.557 489.445 321.825 489.445 320.862C489.445 320.008 489.26 319.331 488.891 318.831C488.526 318.331 488.029 318.081 487.398 318.081C486.779 318.081 486.286 318.328 485.922 318.823C485.557 319.312 485.375 320.047 485.375 321.026ZM494.703 316.714L494.758 317.69C495.383 316.935 496.203 316.557 497.219 316.557C498.979 316.557 499.875 317.565 499.906 319.581V325.167H498.008V319.69C498.008 319.154 497.891 318.758 497.656 318.503C497.427 318.242 497.049 318.112 496.523 318.112C495.758 318.112 495.188 318.458 494.812 319.151V325.167H492.914V316.714H494.703Z" fill="#1D233A" fill-opacity="0.4"/>
<path d="M650.273 321.112H651.688V322.635H650.273V325.167H648.375V322.635H643.461L643.406 321.479L648.312 313.792H650.273V321.112ZM645.398 321.112H648.375V316.362L648.234 316.612L645.398 321.112ZM661.789 322.87C661.789 322.531 661.648 322.273 661.367 322.096C661.091 321.919 660.63 321.763 659.984 321.628C659.339 321.492 658.799 321.32 658.367 321.112C657.419 320.654 656.945 319.99 656.945 319.12C656.945 318.391 657.253 317.781 657.867 317.292C658.482 316.802 659.263 316.557 660.211 316.557C661.221 316.557 662.036 316.807 662.656 317.307C663.281 317.807 663.594 318.456 663.594 319.253H661.695C661.695 318.888 661.56 318.586 661.289 318.346C661.018 318.102 660.659 317.979 660.211 317.979C659.794 317.979 659.453 318.075 659.188 318.268C658.927 318.461 658.797 318.719 658.797 319.042C658.797 319.333 658.919 319.56 659.164 319.721C659.409 319.883 659.904 320.047 660.648 320.214C661.393 320.375 661.977 320.57 662.398 320.799C662.826 321.023 663.141 321.294 663.344 321.612C663.552 321.93 663.656 322.315 663.656 322.768C663.656 323.529 663.341 324.146 662.711 324.62C662.081 325.089 661.255 325.323 660.234 325.323C659.542 325.323 658.924 325.198 658.383 324.948C657.841 324.698 657.419 324.354 657.117 323.917C656.815 323.479 656.664 323.008 656.664 322.503H658.508C658.534 322.95 658.703 323.297 659.016 323.542C659.328 323.781 659.742 323.901 660.258 323.901C660.758 323.901 661.138 323.807 661.398 323.62C661.659 323.427 661.789 323.177 661.789 322.87ZM669.039 325.323C667.836 325.323 666.859 324.945 666.109 324.19C665.365 323.43 664.992 322.419 664.992 321.159V320.924C664.992 320.081 665.154 319.328 665.477 318.667C665.805 318 666.263 317.482 666.852 317.112C667.44 316.742 668.096 316.557 668.82 316.557C669.971 316.557 670.859 316.924 671.484 317.659C672.115 318.393 672.43 319.432 672.43 320.776V321.542H666.906C666.964 322.24 667.195 322.792 667.602 323.198C668.013 323.604 668.529 323.807 669.148 323.807C670.018 323.807 670.727 323.456 671.273 322.753L672.297 323.729C671.958 324.234 671.505 324.628 670.938 324.909C670.375 325.185 669.742 325.323 669.039 325.323ZM668.812 318.081C668.292 318.081 667.87 318.263 667.547 318.628C667.229 318.992 667.026 319.5 666.938 320.151H670.555V320.01C670.513 319.375 670.344 318.896 670.047 318.573C669.75 318.245 669.339 318.081 668.812 318.081ZM678.961 325.167C678.878 325.005 678.805 324.742 678.742 324.378C678.138 325.008 677.398 325.323 676.523 325.323C675.674 325.323 674.982 325.081 674.445 324.596C673.909 324.112 673.641 323.513 673.641 322.799C673.641 321.898 673.974 321.208 674.641 320.729C675.312 320.245 676.271 320.003 677.516 320.003H678.68V319.448C678.68 319.01 678.557 318.661 678.312 318.401C678.068 318.135 677.695 318.003 677.195 318.003C676.763 318.003 676.409 318.112 676.133 318.331C675.857 318.544 675.719 318.818 675.719 319.151H673.82C673.82 318.687 673.974 318.255 674.281 317.854C674.589 317.448 675.005 317.13 675.531 316.901C676.062 316.672 676.654 316.557 677.305 316.557C678.294 316.557 679.083 316.807 679.672 317.307C680.26 317.802 680.562 318.5 680.578 319.401V323.214C680.578 323.974 680.685 324.581 680.898 325.034V325.167H678.961ZM676.875 323.799C677.25 323.799 677.602 323.708 677.93 323.526C678.263 323.344 678.513 323.099 678.68 322.792V321.198H677.656C676.953 321.198 676.424 321.32 676.07 321.565C675.716 321.81 675.539 322.156 675.539 322.604C675.539 322.969 675.659 323.26 675.898 323.479C676.143 323.693 676.469 323.799 676.875 323.799ZM687.305 322.87C687.305 322.531 687.164 322.273 686.883 322.096C686.607 321.919 686.146 321.763 685.5 321.628C684.854 321.492 684.315 321.32 683.883 321.112C682.935 320.654 682.461 319.99 682.461 319.12C682.461 318.391 682.768 317.781 683.383 317.292C683.997 316.802 684.779 316.557 685.727 316.557C686.737 316.557 687.552 316.807 688.172 317.307C688.797 317.807 689.109 318.456 689.109 319.253H687.211C687.211 318.888 687.076 318.586 686.805 318.346C686.534 318.102 686.174 317.979 685.727 317.979C685.31 317.979 684.969 318.075 684.703 318.268C684.443 318.461 684.312 318.719 684.312 319.042C684.312 319.333 684.435 319.56 684.68 319.721C684.924 319.883 685.419 320.047 686.164 320.214C686.909 320.375 687.492 320.57 687.914 320.799C688.341 321.023 688.656 321.294 688.859 321.612C689.068 321.93 689.172 322.315 689.172 322.768C689.172 323.529 688.857 324.146 688.227 324.62C687.596 325.089 686.771 325.323 685.75 325.323C685.057 325.323 684.44 325.198 683.898 324.948C683.357 324.698 682.935 324.354 682.633 323.917C682.331 323.479 682.18 323.008 682.18 322.503H684.023C684.049 322.95 684.219 323.297 684.531 323.542C684.844 323.781 685.258 323.901 685.773 323.901C686.273 323.901 686.654 323.807 686.914 323.62C687.174 323.427 687.305 323.177 687.305 322.87ZM690.477 320.862C690.477 320.034 690.641 319.289 690.969 318.628C691.297 317.961 691.758 317.45 692.352 317.096C692.945 316.737 693.628 316.557 694.398 316.557C695.539 316.557 696.464 316.924 697.172 317.659C697.885 318.393 698.271 319.367 698.328 320.581L698.336 321.026C698.336 321.859 698.174 322.604 697.852 323.26C697.534 323.917 697.076 324.424 696.477 324.784C695.883 325.143 695.195 325.323 694.414 325.323C693.221 325.323 692.266 324.927 691.547 324.135C690.833 323.339 690.477 322.279 690.477 320.956V320.862ZM692.375 321.026C692.375 321.896 692.555 322.578 692.914 323.073C693.273 323.562 693.773 323.807 694.414 323.807C695.055 323.807 695.552 323.557 695.906 323.057C696.266 322.557 696.445 321.825 696.445 320.862C696.445 320.008 696.26 319.331 695.891 318.831C695.526 318.331 695.029 318.081 694.398 318.081C693.779 318.081 693.286 318.328 692.922 318.823C692.557 319.312 692.375 320.047 692.375 321.026ZM701.703 316.714L701.758 317.69C702.383 316.935 703.203 316.557 704.219 316.557C705.979 316.557 706.875 317.565 706.906 319.581V325.167H705.008V319.69C705.008 319.154 704.891 318.758 704.656 318.503C704.427 318.242 704.049 318.112 703.523 318.112C702.758 318.112 702.188 318.458 701.812 319.151V325.167H699.914V316.714H701.703Z" fill="#1D233A" fill-opacity="0.4"/>
<path d="M851.359 319.526L851.977 313.792H858.086V315.432H853.555L853.242 318.151C853.768 317.849 854.362 317.698 855.023 317.698C856.107 317.698 856.948 318.044 857.547 318.737C858.151 319.43 858.453 320.362 858.453 321.534C858.453 322.69 858.12 323.612 857.453 324.299C856.786 324.982 855.872 325.323 854.711 325.323C853.669 325.323 852.805 325.029 852.117 324.44C851.435 323.846 851.065 323.065 851.008 322.096H852.844C852.917 322.648 853.115 323.073 853.438 323.37C853.76 323.661 854.182 323.807 854.703 323.807C855.286 323.807 855.74 323.599 856.062 323.182C856.391 322.766 856.555 322.198 856.555 321.479C856.555 320.786 856.375 320.24 856.016 319.839C855.656 319.432 855.161 319.229 854.531 319.229C854.188 319.229 853.896 319.276 853.656 319.37C853.417 319.458 853.156 319.635 852.875 319.901L851.359 319.526ZM868.789 322.87C868.789 322.531 868.648 322.273 868.367 322.096C868.091 321.919 867.63 321.763 866.984 321.628C866.339 321.492 865.799 321.32 865.367 321.112C864.419 320.654 863.945 319.99 863.945 319.12C863.945 318.391 864.253 317.781 864.867 317.292C865.482 316.802 866.263 316.557 867.211 316.557C868.221 316.557 869.036 316.807 869.656 317.307C870.281 317.807 870.594 318.456 870.594 319.253H868.695C868.695 318.888 868.56 318.586 868.289 318.346C868.018 318.102 867.659 317.979 867.211 317.979C866.794 317.979 866.453 318.075 866.188 318.268C865.927 318.461 865.797 318.719 865.797 319.042C865.797 319.333 865.919 319.56 866.164 319.721C866.409 319.883 866.904 320.047 867.648 320.214C868.393 320.375 868.977 320.57 869.398 320.799C869.826 321.023 870.141 321.294 870.344 321.612C870.552 321.93 870.656 322.315 870.656 322.768C870.656 323.529 870.341 324.146 869.711 324.62C869.081 325.089 868.255 325.323 867.234 325.323C866.542 325.323 865.924 325.198 865.383 324.948C864.841 324.698 864.419 324.354 864.117 323.917C863.815 323.479 863.664 323.008 863.664 322.503H865.508C865.534 322.95 865.703 323.297 866.016 323.542C866.328 323.781 866.742 323.901 867.258 323.901C867.758 323.901 868.138 323.807 868.398 323.62C868.659 323.427 868.789 323.177 868.789 322.87ZM876.039 325.323C874.836 325.323 873.859 324.945 873.109 324.19C872.365 323.43 871.992 322.419 871.992 321.159V320.924C871.992 320.081 872.154 319.328 872.477 318.667C872.805 318 873.263 317.482 873.852 317.112C874.44 316.742 875.096 316.557 875.82 316.557C876.971 316.557 877.859 316.924 878.484 317.659C879.115 318.393 879.43 319.432 879.43 320.776V321.542H873.906C873.964 322.24 874.195 322.792 874.602 323.198C875.013 323.604 875.529 323.807 876.148 323.807C877.018 323.807 877.727 323.456 878.273 322.753L879.297 323.729C878.958 324.234 878.505 324.628 877.938 324.909C877.375 325.185 876.742 325.323 876.039 325.323ZM875.812 318.081C875.292 318.081 874.87 318.263 874.547 318.628C874.229 318.992 874.026 319.5 873.938 320.151H877.555V320.01C877.513 319.375 877.344 318.896 877.047 318.573C876.75 318.245 876.339 318.081 875.812 318.081ZM885.961 325.167C885.878 325.005 885.805 324.742 885.742 324.378C885.138 325.008 884.398 325.323 883.523 325.323C882.674 325.323 881.982 325.081 881.445 324.596C880.909 324.112 880.641 323.513 880.641 322.799C880.641 321.898 880.974 321.208 881.641 320.729C882.312 320.245 883.271 320.003 884.516 320.003H885.68V319.448C885.68 319.01 885.557 318.661 885.312 318.401C885.068 318.135 884.695 318.003 884.195 318.003C883.763 318.003 883.409 318.112 883.133 318.331C882.857 318.544 882.719 318.818 882.719 319.151H880.82C880.82 318.687 880.974 318.255 881.281 317.854C881.589 317.448 882.005 317.13 882.531 316.901C883.062 316.672 883.654 316.557 884.305 316.557C885.294 316.557 886.083 316.807 886.672 317.307C887.26 317.802 887.562 318.5 887.578 319.401V323.214C887.578 323.974 887.685 324.581 887.898 325.034V325.167H885.961ZM883.875 323.799C884.25 323.799 884.602 323.708 884.93 323.526C885.263 323.344 885.513 323.099 885.68 322.792V321.198H884.656C883.953 321.198 883.424 321.32 883.07 321.565C882.716 321.81 882.539 322.156 882.539 322.604C882.539 322.969 882.659 323.26 882.898 323.479C883.143 323.693 883.469 323.799 883.875 323.799ZM894.305 322.87C894.305 322.531 894.164 322.273 893.883 322.096C893.607 321.919 893.146 321.763 892.5 321.628C891.854 321.492 891.315 321.32 890.883 321.112C889.935 320.654 889.461 319.99 889.461 319.12C889.461 318.391 889.768 317.781 890.383 317.292C890.997 316.802 891.779 316.557 892.727 316.557C893.737 316.557 894.552 316.807 895.172 317.307C895.797 317.807 896.109 318.456 896.109 319.253H894.211C894.211 318.888 894.076 318.586 893.805 318.346C893.534 318.102 893.174 317.979 892.727 317.979C892.31 317.979 891.969 318.075 891.703 318.268C891.443 318.461 891.312 318.719 891.312 319.042C891.312 319.333 891.435 319.56 891.68 319.721C891.924 319.883 892.419 320.047 893.164 320.214C893.909 320.375 894.492 320.57 894.914 320.799C895.341 321.023 895.656 321.294 895.859 321.612C896.068 321.93 896.172 322.315 896.172 322.768C896.172 323.529 895.857 324.146 895.227 324.62C894.596 325.089 893.771 325.323 892.75 325.323C892.057 325.323 891.44 325.198 890.898 324.948C890.357 324.698 889.935 324.354 889.633 323.917C889.331 323.479 889.18 323.008 889.18 322.503H891.023C891.049 322.95 891.219 323.297 891.531 323.542C891.844 323.781 892.258 323.901 892.773 323.901C893.273 323.901 893.654 323.807 893.914 323.62C894.174 323.427 894.305 323.177 894.305 322.87ZM897.477 320.862C897.477 320.034 897.641 319.289 897.969 318.628C898.297 317.961 898.758 317.45 899.352 317.096C899.945 316.737 900.628 316.557 901.398 316.557C902.539 316.557 903.464 316.924 904.172 317.659C904.885 318.393 905.271 319.367 905.328 320.581L905.336 321.026C905.336 321.859 905.174 322.604 904.852 323.26C904.534 323.917 904.076 324.424 903.477 324.784C902.883 325.143 902.195 325.323 901.414 325.323C900.221 325.323 899.266 324.927 898.547 324.135C897.833 323.339 897.477 322.279 897.477 320.956V320.862ZM899.375 321.026C899.375 321.896 899.555 322.578 899.914 323.073C900.273 323.562 900.773 323.807 901.414 323.807C902.055 323.807 902.552 323.557 902.906 323.057C903.266 322.557 903.445 321.825 903.445 320.862C903.445 320.008 903.26 319.331 902.891 318.831C902.526 318.331 902.029 318.081 901.398 318.081C900.779 318.081 900.286 318.328 899.922 318.823C899.557 319.312 899.375 320.047 899.375 321.026ZM908.703 316.714L908.758 317.69C909.383 316.935 910.203 316.557 911.219 316.557C912.979 316.557 913.875 317.565 913.906 319.581V325.167H912.008V319.69C912.008 319.154 911.891 318.758 911.656 318.503C911.427 318.242 911.049 318.112 910.523 318.112C909.758 318.112 909.188 318.458 908.812 319.151V325.167H906.914V316.714H908.703Z" fill="#1D233A" fill-opacity="0.4"/>
<path d="M1063.76 313.737V315.307H1063.52C1062.46 315.323 1061.61 315.615 1060.98 316.182C1060.34 316.75 1059.96 317.555 1059.84 318.596C1060.45 317.956 1061.23 317.635 1062.18 317.635C1063.18 317.635 1063.98 317.99 1064.55 318.698C1065.14 319.406 1065.43 320.32 1065.43 321.44C1065.43 322.596 1065.09 323.534 1064.41 324.253C1063.73 324.966 1062.84 325.323 1061.73 325.323C1060.6 325.323 1059.68 324.904 1058.97 324.065C1058.27 323.227 1057.91 322.128 1057.91 320.768V320.12C1057.91 318.125 1058.4 316.562 1059.37 315.432C1060.34 314.302 1061.74 313.737 1063.56 313.737H1063.76ZM1061.72 319.167C1061.3 319.167 1060.92 319.284 1060.57 319.518C1060.23 319.753 1059.97 320.065 1059.81 320.456V321.034C1059.81 321.878 1059.99 322.549 1060.34 323.049C1060.7 323.544 1061.16 323.792 1061.72 323.792C1062.28 323.792 1062.73 323.581 1063.05 323.159C1063.38 322.737 1063.55 322.182 1063.55 321.495C1063.55 320.807 1063.38 320.247 1063.05 319.815C1062.71 319.383 1062.27 319.167 1061.72 319.167ZM1075.79 322.87C1075.79 322.531 1075.65 322.273 1075.37 322.096C1075.09 321.919 1074.63 321.763 1073.98 321.628C1073.34 321.492 1072.8 321.32 1072.37 321.112C1071.42 320.654 1070.95 319.99 1070.95 319.12C1070.95 318.391 1071.25 317.781 1071.87 317.292C1072.48 316.802 1073.26 316.557 1074.21 316.557C1075.22 316.557 1076.04 316.807 1076.66 317.307C1077.28 317.807 1077.59 318.456 1077.59 319.253H1075.7C1075.7 318.888 1075.56 318.586 1075.29 318.346C1075.02 318.102 1074.66 317.979 1074.21 317.979C1073.79 317.979 1073.45 318.075 1073.19 318.268C1072.93 318.461 1072.8 318.719 1072.8 319.042C1072.8 319.333 1072.92 319.56 1073.16 319.721C1073.41 319.883 1073.9 320.047 1074.65 320.214C1075.39 320.375 1075.98 320.57 1076.4 320.799C1076.83 321.023 1077.14 321.294 1077.34 321.612C1077.55 321.93 1077.66 322.315 1077.66 322.768C1077.66 323.529 1077.34 324.146 1076.71 324.62C1076.08 325.089 1075.26 325.323 1074.23 325.323C1073.54 325.323 1072.92 325.198 1072.38 324.948C1071.84 324.698 1071.42 324.354 1071.12 323.917C1070.82 323.479 1070.66 323.008 1070.66 322.503H1072.51C1072.53 322.95 1072.7 323.297 1073.02 323.542C1073.33 323.781 1073.74 323.901 1074.26 323.901C1074.76 323.901 1075.14 323.807 1075.4 323.62C1075.66 323.427 1075.79 323.177 1075.79 322.87ZM1083.04 325.323C1081.84 325.323 1080.86 324.945 1080.11 324.19C1079.36 323.43 1078.99 322.419 1078.99 321.159V320.924C1078.99 320.081 1079.15 319.328 1079.48 318.667C1079.8 318 1080.26 317.482 1080.85 317.112C1081.44 316.742 1082.1 316.557 1082.82 316.557C1083.97 316.557 1084.86 316.924 1085.48 317.659C1086.11 318.393 1086.43 319.432 1086.43 320.776V321.542H1080.91C1080.96 322.24 1081.2 322.792 1081.6 323.198C1082.01 323.604 1082.53 323.807 1083.15 323.807C1084.02 323.807 1084.73 323.456 1085.27 322.753L1086.3 323.729C1085.96 324.234 1085.51 324.628 1084.94 324.909C1084.38 325.185 1083.74 325.323 1083.04 325.323ZM1082.81 318.081C1082.29 318.081 1081.87 318.263 1081.55 318.628C1081.23 318.992 1081.03 319.5 1080.94 320.151H1084.55V320.01C1084.51 319.375 1084.34 318.896 1084.05 318.573C1083.75 318.245 1083.34 318.081 1082.81 318.081ZM1092.96 325.167C1092.88 325.005 1092.8 324.742 1092.74 324.378C1092.14 325.008 1091.4 325.323 1090.52 325.323C1089.67 325.323 1088.98 325.081 1088.45 324.596C1087.91 324.112 1087.64 323.513 1087.64 322.799C1087.64 321.898 1087.97 321.208 1088.64 320.729C1089.31 320.245 1090.27 320.003 1091.52 320.003H1092.68V319.448C1092.68 319.01 1092.56 318.661 1092.31 318.401C1092.07 318.135 1091.7 318.003 1091.2 318.003C1090.76 318.003 1090.41 318.112 1090.13 318.331C1089.86 318.544 1089.72 318.818 1089.72 319.151H1087.82C1087.82 318.687 1087.97 318.255 1088.28 317.854C1088.59 317.448 1089.01 317.13 1089.53 316.901C1090.06 316.672 1090.65 316.557 1091.3 316.557C1092.29 316.557 1093.08 316.807 1093.67 317.307C1094.26 317.802 1094.56 318.5 1094.58 319.401V323.214C1094.58 323.974 1094.68 324.581 1094.9 325.034V325.167H1092.96ZM1090.88 323.799C1091.25 323.799 1091.6 323.708 1091.93 323.526C1092.26 323.344 1092.51 323.099 1092.68 322.792V321.198H1091.66C1090.95 321.198 1090.42 321.32 1090.07 321.565C1089.72 321.81 1089.54 322.156 1089.54 322.604C1089.54 322.969 1089.66 323.26 1089.9 323.479C1090.14 323.693 1090.47 323.799 1090.88 323.799ZM1101.3 322.87C1101.3 322.531 1101.16 322.273 1100.88 322.096C1100.61 321.919 1100.15 321.763 1099.5 321.628C1098.85 321.492 1098.32 321.32 1097.88 321.112C1096.93 320.654 1096.46 319.99 1096.46 319.12C1096.46 318.391 1096.77 317.781 1097.38 317.292C1098 316.802 1098.78 316.557 1099.73 316.557C1100.74 316.557 1101.55 316.807 1102.17 317.307C1102.8 317.807 1103.11 318.456 1103.11 319.253H1101.21C1101.21 318.888 1101.08 318.586 1100.8 318.346C1100.53 318.102 1100.17 317.979 1099.73 317.979C1099.31 317.979 1098.97 318.075 1098.7 318.268C1098.44 318.461 1098.31 318.719 1098.31 319.042C1098.31 319.333 1098.43 319.56 1098.68 319.721C1098.92 319.883 1099.42 320.047 1100.16 320.214C1100.91 320.375 1101.49 320.57 1101.91 320.799C1102.34 321.023 1102.66 321.294 1102.86 321.612C1103.07 321.93 1103.17 322.315 1103.17 322.768C1103.17 323.529 1102.86 324.146 1102.23 324.62C1101.6 325.089 1100.77 325.323 1099.75 325.323C1099.06 325.323 1098.44 325.198 1097.9 324.948C1097.36 324.698 1096.93 324.354 1096.63 323.917C1096.33 323.479 1096.18 323.008 1096.18 322.503H1098.02C1098.05 322.95 1098.22 323.297 1098.53 323.542C1098.84 323.781 1099.26 323.901 1099.77 323.901C1100.27 323.901 1100.65 323.807 1100.91 323.62C1101.17 323.427 1101.3 323.177 1101.3 322.87ZM1104.48 320.862C1104.48 320.034 1104.64 319.289 1104.97 318.628C1105.3 317.961 1105.76 317.45 1106.35 317.096C1106.95 316.737 1107.63 316.557 1108.4 316.557C1109.54 316.557 1110.46 316.924 1111.17 317.659C1111.89 318.393 1112.27 319.367 1112.33 320.581L1112.34 321.026C1112.34 321.859 1112.17 322.604 1111.85 323.26C1111.53 323.917 1111.08 324.424 1110.48 324.784C1109.88 325.143 1109.2 325.323 1108.41 325.323C1107.22 325.323 1106.27 324.927 1105.55 324.135C1104.83 323.339 1104.48 322.279 1104.48 320.956V320.862ZM1106.38 321.026C1106.38 321.896 1106.55 322.578 1106.91 323.073C1107.27 323.562 1107.77 323.807 1108.41 323.807C1109.05 323.807 1109.55 323.557 1109.91 323.057C1110.27 322.557 1110.45 321.825 1110.45 320.862C1110.45 320.008 1110.26 319.331 1109.89 318.831C1109.53 318.331 1109.03 318.081 1108.4 318.081C1107.78 318.081 1107.29 318.328 1106.92 318.823C1106.56 319.312 1106.38 320.047 1106.38 321.026ZM1115.7 316.714L1115.76 317.69C1116.38 316.935 1117.2 316.557 1118.22 316.557C1119.98 316.557 1120.88 317.565 1120.91 319.581V325.167H1119.01V319.69C1119.01 319.154 1118.89 318.758 1118.66 318.503C1118.43 318.242 1118.05 318.112 1117.52 318.112C1116.76 318.112 1116.19 318.458 1115.81 319.151V325.167H1113.91V316.714H1115.7Z" fill="#1D233A" fill-opacity="0.4"/>
<line x1="5" y1="330.167" x2="4.99999" y2="1.16663" stroke="#1D233A" stroke-opacity="0.2" stroke-width="2" stroke-linecap="round" stroke-dasharray="3 5"/>
<line x1="419" y1="330.167" x2="419" y2="1.16663" stroke="#1D233A" stroke-opacity="0.2" stroke-width="2" stroke-linecap="round" stroke-dasharray="3 5"/>
<line x1="833" y1="330.167" x2="833" y2="1.16663" stroke="#1D233A" stroke-opacity="0.2" stroke-width="2" stroke-linecap="round" stroke-dasharray="3 5"/>
<line x1="212" y1="330.167" x2="212" y2="1.16663" stroke="#1D233A" stroke-opacity="0.2" stroke-width="2" stroke-linecap="round" stroke-dasharray="3 5"/>
<line x1="626" y1="330.167" x2="626" y2="1.16663" stroke="#1D233A" stroke-opacity="0.2" stroke-width="2" stroke-linecap="round" stroke-dasharray="3 5"/>
<line x1="1040" y1="330.167" x2="1040" y2="1.16663" stroke="#1D233A" stroke-opacity="0.2" stroke-width="2" stroke-linecap="round" stroke-dasharray="3 5"/>
<line x1="1245" y1="330.167" x2="1245" y2="1.16663" stroke="#1D233A" stroke-opacity="0.2" stroke-width="2" stroke-linecap="round" stroke-dasharray="3 5"/>
<g filter="url(#filter0_d)">
<path d="M6 173.02C46.5818 173.02 128.447 51.1666 173.337 51.1666C229.451 51.1666 255.002 252.167 305.604 252.167C356.206 252.167 405.806 102.886 498.493 102.886C591.18 102.886 595.188 219.254 754.008 219.254C912.828 219.254 886.776 102.886 973.451 102.886C1060.13 102.886 1079.66 187.518 1144.3 187.518C1196 187.518 1233.64 230.617 1246 252.167" stroke="#475FEF" stroke-width="3" stroke-linecap="round"/>
</g>
<defs>
<filter id="filter0_d" x="0.5" y="49.6666" width="1251" height="220" filterUnits="userSpaceOnUse" color-interpolation-filters="sRGB">
<feFlood flood-opacity="0" result="BackgroundImageFix"/>
<feColorMatrix in="SourceAlpha" type="matrix" values="0 0 0 0 0 0 0 0 0 0 0 0 0 0 0 0 0 0 127 0"/>
<feOffset dy="12"/>
<feGaussianBlur stdDeviation="2"/>
<feColorMatrix type="matrix" values="0 0 0 0 0.278431 0 0 0 0 0.372549 0 0 0 0 0.937255 0 0 0 0.2 0"/>
<feBlend mode="normal" in2="BackgroundImageFix" result="effect1_dropShadow"/>
<feBlend mode="normal" in="SourceGraphic" in2="effect1_dropShadow" result="shape"/>
</filter>
</defs>
</svg>
